# xmcd
#
# Track frame offsets:
#	180
#	21986
#	45671
#
# Disc length: 929 seconds
#
# Revision: 0
# Processed by: cddbd v1.5PL3 Copyright (c) Steve Scherf et al.
# Submitted via: EasyCDDAExtractor 4.5.0.2
#
DISCID=1e039f03
DTITLE=Possession - The Unnameable Suffering
DYEAR=1993
DGENRE=Death Metal
TTITLE0=Seer´s Vision
TTITLE1=Sounds Of Sorrow
TTITLE2=Have No Fear
EXTD=YEAR: 2000
EXTT0=
EXTT1=
EXTT2=
PLAYORDER=
